<svg width="1263" height="348" viewBox="0 0 1263 348" fill="none" xmlns="http://www.w3.org/2000/svg">
<g clip-path="url(#clip0_1_365)">
<g clip-path="url(#clip1_1_365)">
<rect x="0.922363" y="0.423096" width="1261.9" height="346.973" rx="21" fill="url(#paint0_linear_1_365)"/>
</g>
<g clip-path="url(#clip2_1_365)">
<path d="M-64.9956 274.23C-48.4394 289.277 -31.5264 303.821 -14.2208 317.862C-16.5758 340.127 -18.3242 362.463 -19.466 384.872C2.79925 383.723 24.9931 381.963 47.1157 379.593C61.0671 397.01 75.5538 414.068 90.4687 430.694C105.419 414.032 119.87 397.01 133.822 379.593C155.944 381.963 178.138 383.723 200.403 384.872C199.262 362.463 197.513 340.127 195.158 317.862C212.464 303.821 229.412 289.241 245.933 274.23C229.377 259.184 212.464 244.64 195.158 230.598C197.513 208.334 199.262 185.997 200.403 163.589C178.138 164.738 155.944 166.497 133.822 168.867C119.906 151.415 105.419 134.393 90.5044 117.73C75.5538 134.393 61.1028 151.415 47.1514 168.832C25.0288 166.461 2.83493 164.702 -19.4303 163.553C-18.2885 185.961 -16.5401 208.298 -14.1851 230.562C-31.5264 244.64 -48.4394 259.184 -64.9956 274.23ZM61.7808 286.189C61.7094 286.117 61.6024 286.081 61.531 286.009C61.7094 286.045 61.8878 286.045 62.0662 286.081C61.9592 286.224 61.8521 286.368 61.7451 286.512C61.7451 286.404 61.7451 286.296 61.7808 286.189ZM61.7808 262.236C61.7808 262.128 61.7451 262.02 61.7451 261.913C61.8521 262.056 61.9592 262.2 62.0662 262.344C61.8878 262.38 61.7094 262.38 61.531 262.416C61.6024 262.38 61.6737 262.308 61.7808 262.236ZM78.5868 245.322C78.6581 245.25 78.6938 245.142 78.7652 245.071C78.7295 245.25 78.7295 245.43 78.6938 245.609C78.5511 245.501 78.4084 245.394 78.2656 245.286C78.4084 245.286 78.4797 245.286 78.5868 245.322ZM102.386 245.322C102.493 245.322 102.6 245.286 102.707 245.286C102.565 245.394 102.422 245.501 102.279 245.609C102.244 245.43 102.244 245.25 102.208 245.071C102.279 245.142 102.351 245.214 102.386 245.322ZM119.228 262.236C119.299 262.308 119.406 262.344 119.478 262.416C119.299 262.38 119.121 262.38 118.943 262.344C119.05 262.2 119.157 262.056 119.264 261.913C119.264 262.056 119.228 262.128 119.228 262.236ZM119.228 286.189C119.228 286.296 119.264 286.404 119.264 286.512C119.157 286.368 119.05 286.224 118.943 286.081C119.121 286.045 119.299 286.045 119.478 286.009C119.406 286.081 119.299 286.153 119.228 286.189ZM102.386 303.139C102.315 303.21 102.279 303.318 102.208 303.39C102.244 303.21 102.244 303.031 102.279 302.851C102.422 302.959 102.565 303.067 102.707 303.174C102.6 303.174 102.493 303.139 102.386 303.139ZM78.5868 303.139C78.4797 303.139 78.3727 303.174 78.2656 303.174C78.4084 303.067 78.5511 302.959 78.6938 302.851C78.7295 303.031 78.7295 303.21 78.7652 303.39C78.7295 303.318 78.6581 303.21 78.5868 303.139ZM77.0525 279.832C67.6325 278.683 58.2126 277.534 48.8284 276.349C47.9363 275.631 47.0086 274.948 46.1166 274.23C47.0086 273.512 47.9363 272.83 48.8284 272.111C58.2483 270.926 67.6682 269.741 77.0525 268.628C71.2007 261.123 65.3489 253.581 59.5328 246.04C59.3901 244.891 59.2474 243.742 59.1047 242.629C60.2465 242.772 61.3883 242.916 62.4944 243.06C69.9875 248.913 77.4806 254.802 84.9381 260.692C86.0799 251.211 87.2217 241.731 88.3992 232.286C89.1128 231.388 89.7908 230.455 90.5044 229.557C91.218 230.455 91.896 231.388 92.6096 232.286C93.7871 241.767 94.9646 251.247 96.0707 260.692C103.528 254.802 111.021 248.913 118.514 243.06C119.656 242.916 120.798 242.772 121.904 242.629C121.761 243.778 121.619 244.927 121.476 246.04C115.66 253.581 109.808 261.123 103.956 268.628C113.376 269.777 122.796 270.926 132.18 272.111C133.072 272.83 134 273.512 134.892 274.23C134 274.948 133.072 275.631 132.18 276.349C122.76 277.534 113.341 278.719 103.956 279.832C109.808 287.338 115.66 294.879 121.476 302.42C121.619 303.569 121.761 304.719 121.904 305.832C120.762 305.688 119.62 305.545 118.514 305.401C111.021 299.547 103.528 293.658 96.0707 287.769C94.9289 297.249 93.7871 306.73 92.6096 316.174C91.896 317.072 91.218 318.006 90.5044 318.903C89.7908 318.006 89.1128 317.072 88.3992 316.174C87.2217 306.694 86.0442 297.213 84.9381 287.769C77.4806 293.658 69.9875 299.547 62.4944 305.401C61.3526 305.545 60.2108 305.688 59.1047 305.832C59.2474 304.683 59.3901 303.534 59.5328 302.42C65.3489 294.879 71.2007 287.338 77.0525 279.832ZM25.2786 274.23C32.8074 280.227 40.3719 286.117 48.0077 291.934C46.6875 301.487 45.4743 311.039 44.3682 320.627C53.8952 319.514 63.3864 318.293 72.8777 316.964C78.6581 324.649 84.5099 332.298 90.4687 339.84C96.4275 332.298 102.279 324.649 108.06 316.964C117.551 318.293 127.042 319.514 136.569 320.627C135.463 311.039 134.25 301.487 132.93 291.934C140.566 286.117 148.166 280.227 155.659 274.23C148.166 268.233 140.566 262.344 132.93 256.526C134.25 246.974 135.463 237.421 136.569 227.833C127.042 228.946 117.551 230.167 108.06 231.496C102.279 223.811 96.4275 216.162 90.4687 208.621C84.5099 216.198 78.6581 223.811 72.8777 231.496C63.3864 230.167 53.8952 228.946 44.3682 227.833C45.4743 237.421 46.6875 246.974 48.0077 256.526C40.3719 262.308 32.7717 268.233 25.2786 274.23ZM1.33631 311.398C-13.7926 299.368 -28.6005 286.979 -43.1585 274.23C-28.6005 261.482 -13.7926 249.093 1.33631 237.062C-0.911629 217.778 -2.6957 198.458 -4.01591 179.102C15.2164 180.431 34.4131 182.226 53.574 184.489C65.5273 169.262 77.8375 154.359 90.5044 139.708C103.171 154.359 115.481 169.262 127.435 184.489C146.596 182.226 165.792 180.431 185.025 179.102C183.704 198.458 181.92 217.778 179.672 237.062C194.801 249.093 209.609 261.482 224.167 274.23C209.609 286.979 194.801 299.368 179.672 311.398C181.92 330.682 183.704 350.002 185.025 369.358C165.792 368.03 146.596 366.234 127.435 363.972C115.481 379.198 103.171 394.101 90.5044 408.753C77.8375 394.101 65.5273 379.198 53.574 363.972C34.4131 366.234 15.2164 368.03 -4.01591 369.358C-2.6957 349.966 -0.911629 330.646 1.33631 311.398Z" fill="url(#paint1_linear_1_365)" fill-opacity="0.3"/>
<path d="M-19.1805 274.23C-19.1449 277.354 -18.1101 280.479 -16.0763 282.992C-15.8978 283.244 -15.6838 283.531 -15.434 283.783C-15.1842 284.034 -14.9344 284.249 -14.649 284.429C-9.40381 288.666 -1.58956 288.774 3.37017 283.783C5.86787 281.269 7.18809 277.749 7.29514 274.23C7.18809 270.675 5.83219 267.156 3.37017 264.678C-1.58956 259.686 -9.40381 259.794 -14.649 264.031C-14.8988 264.211 -15.1842 264.426 -15.434 264.678C-15.6838 264.929 -15.8978 265.181 -16.0763 265.468C-18.0744 267.982 -19.1449 271.106 -19.1805 274.23ZM12.9328 196.16C10.7562 198.386 9.32898 201.331 8.97216 204.563C8.9008 204.886 8.86512 205.209 8.9008 205.568C8.9008 205.928 8.93648 206.251 8.97216 206.574C9.68579 213.325 15.1807 218.927 22.1743 218.963C25.6711 218.963 29.0965 217.419 31.6656 215.013C34.0919 212.427 35.5906 208.98 35.5906 205.461C35.5906 198.422 29.9886 192.892 23.2804 192.174C22.9593 192.102 22.6382 192.066 22.2814 192.102C21.9245 192.102 21.6034 192.138 21.2823 192.174C18.1066 192.533 15.1451 194.005 12.9328 196.16ZM90.5044 163.84C87.4001 163.876 84.2958 164.917 81.7981 166.964C81.5483 167.144 81.2629 167.359 81.0131 167.611C80.7633 167.862 80.5493 168.113 80.3709 168.401C76.1604 173.679 76.0534 181.544 81.0131 186.536C83.5108 189.049 87.0076 190.378 90.5044 190.486C94.0369 190.378 97.5337 189.013 99.9957 186.536C104.955 181.544 104.848 173.679 100.638 168.401C100.46 168.149 100.245 167.862 99.9957 167.611C99.7459 167.359 99.4961 167.144 99.2107 166.964C96.6773 164.953 93.573 163.876 90.5044 163.84ZM168.04 196.16C165.828 193.969 162.902 192.533 159.691 192.174C159.37 192.102 159.049 192.066 158.692 192.102C158.335 192.102 158.014 192.138 157.693 192.174C150.985 192.892 145.418 198.422 145.383 205.461C145.383 208.98 146.917 212.427 149.308 215.013C151.877 217.455 155.302 218.963 158.799 218.963C165.792 218.963 171.287 213.325 172.001 206.574C172.072 206.251 172.108 205.928 172.072 205.568C172.072 205.209 172.037 204.886 172.001 204.563C171.644 201.367 170.217 198.386 168.04 196.16ZM200.154 274.23C200.118 271.106 199.083 267.982 197.049 265.468C196.871 265.217 196.657 264.929 196.407 264.678C196.157 264.426 195.908 264.211 195.622 264.031C190.377 259.794 182.563 259.686 177.603 264.678C175.105 267.192 173.785 270.711 173.678 274.23C173.785 277.785 175.141 281.305 177.603 283.783C182.563 288.774 190.377 288.666 195.622 284.429C195.872 284.249 196.157 284.034 196.407 283.783C196.657 283.531 196.871 283.28 197.049 282.992C199.083 280.443 200.154 277.319 200.154 274.23ZM168.04 352.265C170.217 350.038 171.644 347.094 172.001 343.862C172.072 343.538 172.108 343.215 172.072 342.856C172.072 342.497 172.037 342.174 172.001 341.851C171.287 335.099 165.792 329.497 158.799 329.461C155.302 329.461 151.877 331.005 149.308 333.411C146.881 335.997 145.383 339.444 145.383 342.964C145.383 350.002 150.985 355.533 157.693 356.251C158.014 356.323 158.335 356.359 158.692 356.323C159.049 356.323 159.37 356.287 159.691 356.251C162.902 355.892 165.828 354.455 168.04 352.265ZM90.5044 384.585C93.6087 384.549 96.713 383.507 99.2107 381.46C99.4605 381.281 99.7459 381.065 99.9957 380.814C100.245 380.563 100.46 380.311 100.638 380.024C104.848 374.745 104.955 366.88 99.9957 361.889C97.498 359.375 94.0012 358.046 90.5044 357.939C86.9719 358.046 83.4751 359.411 81.0131 361.889C76.0534 366.88 76.1604 374.745 80.3709 380.024C80.5493 380.275 80.7633 380.563 81.0131 380.814C81.2629 381.065 81.5127 381.281 81.7981 381.46C84.2958 383.507 87.4001 384.585 90.5044 384.585ZM12.9328 352.265C15.1451 354.455 18.0709 355.892 21.2823 356.251C21.6034 356.323 21.9245 356.359 22.2814 356.323C22.6382 356.323 22.9593 356.287 23.2804 356.251C29.9886 355.533 35.5549 350.002 35.5906 342.964C35.5906 339.444 34.0563 335.997 31.6656 333.411C29.0965 330.969 25.6711 329.461 22.1743 329.461C15.1807 329.461 9.68579 335.099 8.97216 341.851C8.9008 342.174 8.86512 342.497 8.9008 342.856C8.9008 343.215 8.93648 343.538 8.97216 343.862C9.32898 347.094 10.7919 350.038 12.9328 352.265ZM-0.554798 274.23C-1.09002 278.109 -5.87134 281.664 -9.72494 278.073C-10.8668 276.816 -11.2949 275.487 -11.2236 274.23C-11.2949 272.973 -10.8668 271.645 -9.72494 270.388C-5.87134 266.797 -1.05434 270.352 -0.554798 274.23ZM26.135 209.447C23.0307 211.817 17.1432 210.919 16.9648 205.604C17.0362 203.917 17.6785 202.66 18.6062 201.834C19.4268 200.9 20.6757 200.254 22.3527 200.182C27.5622 200.397 28.49 206.323 26.135 209.447ZM90.5044 182.585C86.6508 182.047 83.1183 177.235 86.6865 173.356C87.9353 172.207 89.2556 171.776 90.5044 171.848C91.7533 171.776 93.0735 172.207 94.3223 173.356C97.8905 177.235 94.358 182.083 90.5044 182.585ZM154.874 209.447C152.519 206.323 153.411 200.397 158.692 200.218C160.369 200.29 161.618 200.9 162.438 201.87C163.366 202.696 164.008 203.952 164.08 205.64C163.866 210.883 157.942 211.817 154.874 209.447ZM181.528 274.23C182.063 270.352 186.844 266.797 190.698 270.388C191.84 271.645 192.268 272.973 192.197 274.23C192.268 275.487 191.84 276.816 190.698 278.073C186.88 281.664 182.063 278.109 181.528 274.23ZM154.874 339.014C157.978 336.643 163.866 337.541 164.044 342.856C163.973 344.544 163.366 345.801 162.403 346.627C161.582 347.56 160.333 348.207 158.656 348.279C153.411 348.063 152.519 342.102 154.874 339.014ZM90.5044 365.839C94.358 366.378 97.8905 371.19 94.3223 375.068C93.0735 376.217 91.7533 376.648 90.5044 376.576C89.2556 376.648 87.9353 376.217 86.6865 375.068C83.1183 371.226 86.6508 366.378 90.5044 365.839ZM26.135 339.014C28.49 342.138 27.5979 348.063 22.317 348.243C20.64 348.207 19.3912 347.56 18.5705 346.627C17.6428 345.801 17.0005 344.544 16.9291 342.856C17.1432 337.541 23.0307 336.643 26.135 339.014Z" fill="url(#paint2_linear_1_365)" fill-opacity="0.3"/>
</g>
<g clip-path="url(#clip3_1_365)">
<path d="M456.871 0.423103C466.187 8.83579 475.704 16.9674 485.442 24.8179C484.116 37.2663 483.133 49.7548 482.49 62.2835C495.019 61.641 507.507 60.6572 519.956 59.332C527.806 69.0698 535.958 78.6069 544.351 87.903C552.763 78.5868 560.895 69.0698 568.745 59.332C581.194 60.6572 593.682 61.641 606.211 62.2835C605.568 49.7548 604.585 37.2663 603.259 24.8179C612.997 16.9674 622.534 8.81571 631.83 0.423103C622.514 -7.98959 612.997 -16.1212 603.259 -23.9717C604.585 -36.4201 605.568 -48.9086 606.211 -61.4373C593.682 -60.7948 581.194 -59.811 568.745 -58.4858C560.915 -68.2437 552.763 -77.7607 544.371 -87.0769C535.958 -77.7607 527.826 -68.2437 519.976 -58.5059C507.527 -59.831 495.039 -60.8149 482.51 -61.4574C483.153 -48.9287 484.137 -36.4401 485.462 -23.9918C475.704 -16.1212 466.187 -7.98959 456.871 0.423103ZM528.208 7.10908C528.168 7.06892 528.107 7.04884 528.067 7.00869C528.168 7.02876 528.268 7.02877 528.368 7.04884C528.308 7.12916 528.248 7.20947 528.188 7.28978C528.188 7.22955 528.188 7.16931 528.208 7.10908ZM528.208 -6.28296C528.208 -6.34319 528.188 -6.40343 528.188 -6.46366C528.248 -6.38335 528.308 -6.30304 528.368 -6.22272C528.268 -6.20264 528.168 -6.20264 528.067 -6.18257C528.107 -6.20264 528.148 -6.2428 528.208 -6.28296ZM537.665 -15.7397C537.705 -15.7799 537.725 -15.8401 537.765 -15.8803C537.745 -15.7799 537.745 -15.6795 537.725 -15.5791C537.644 -15.6393 537.564 -15.6995 537.484 -15.7598C537.564 -15.7598 537.604 -15.7598 537.665 -15.7397ZM551.057 -15.7397C551.117 -15.7397 551.177 -15.7598 551.237 -15.7598C551.157 -15.6995 551.077 -15.6393 550.996 -15.5791C550.976 -15.6795 550.976 -15.7799 550.956 -15.8803C550.996 -15.8401 551.036 -15.7999 551.057 -15.7397ZM560.533 -6.28296C560.574 -6.2428 560.634 -6.22272 560.674 -6.18257C560.574 -6.20264 560.473 -6.20264 560.373 -6.22272C560.433 -6.30304 560.493 -6.38335 560.553 -6.46366C560.553 -6.38335 560.533 -6.34319 560.533 -6.28296ZM560.533 7.10908C560.533 7.16931 560.553 7.22955 560.553 7.28978C560.493 7.20947 560.433 7.12916 560.373 7.04884C560.473 7.02877 560.574 7.02876 560.674 7.00869C560.634 7.04884 560.574 7.089 560.533 7.10908ZM551.057 16.5859C551.016 16.6261 550.996 16.6863 550.956 16.7264C550.976 16.6261 550.976 16.5257 550.996 16.4253C551.077 16.4855 551.157 16.5457 551.237 16.606C551.177 16.606 551.117 16.5859 551.057 16.5859ZM537.665 16.5859C537.604 16.5859 537.544 16.606 537.484 16.606C537.564 16.5457 537.644 16.4855 537.725 16.4253C537.745 16.5257 537.745 16.6261 537.765 16.7264C537.745 16.6863 537.705 16.6261 537.665 16.5859ZM536.801 3.55527C531.501 2.91277 526.2 2.27027 520.919 1.6077C520.418 1.20614 519.895 0.824661 519.394 0.423103C519.895 0.0215378 520.418 -0.35994 520.919 -0.761505C526.22 -1.42408 531.521 -2.08665 536.801 -2.70908C533.508 -6.90538 530.216 -11.1218 526.943 -15.3382C526.863 -15.9806 526.782 -16.6231 526.702 -17.2456C527.344 -17.1653 527.987 -17.0849 528.609 -17.0046C532.826 -13.7319 537.042 -10.4391 541.238 -7.14632C541.881 -12.4469 542.523 -17.7475 543.186 -23.028C543.588 -23.53 543.969 -24.052 544.371 -24.554C544.772 -24.052 545.154 -23.53 545.555 -23.028C546.218 -17.7274 546.88 -12.4268 547.503 -7.14632C551.699 -10.4391 555.915 -13.7319 560.132 -17.0046C560.774 -17.0849 561.417 -17.1653 562.039 -17.2456C561.959 -16.6031 561.879 -15.9606 561.798 -15.3382C558.526 -11.1218 555.233 -6.90538 551.94 -2.70908C557.241 -2.06657 562.541 -1.42408 567.822 -0.761505C568.324 -0.35994 568.846 0.0215378 569.348 0.423103C568.846 0.824661 568.324 1.20614 567.822 1.6077C562.521 2.27027 557.221 2.93285 551.94 3.55527C555.233 7.75157 558.526 11.968 561.798 16.1843C561.879 16.8268 561.959 17.4693 562.039 18.0918C561.397 18.0114 560.754 17.9311 560.132 17.8508C555.915 14.5781 551.699 11.2853 547.503 7.99251C546.86 13.2931 546.218 18.5937 545.555 23.8742C545.154 24.3762 544.772 24.8982 544.371 25.4002C543.969 24.8982 543.588 24.3762 543.186 23.8742C542.523 18.5736 541.861 13.273 541.238 7.99251C537.042 11.2853 532.826 14.5781 528.609 17.8508C527.967 17.9311 527.324 18.0114 526.702 18.0918C526.782 17.4493 526.863 16.8068 526.943 16.1843C530.216 11.968 533.508 7.75157 536.801 3.55527ZM507.668 0.423103C511.904 3.77613 516.161 7.06892 520.458 10.3216C519.715 15.6623 519.032 21.0031 518.41 26.3639C523.771 25.7415 529.111 25.0588 534.452 24.3159C537.705 28.6126 540.997 32.8893 544.351 37.1056C547.704 32.8893 550.996 28.6126 554.249 24.3159C559.59 25.0588 564.93 25.7415 570.291 26.3639C569.669 21.0031 568.986 15.6623 568.243 10.3216C572.54 7.06892 576.817 3.77613 581.033 0.423103C576.817 -2.92993 572.54 -6.22272 568.243 -9.47536C568.986 -14.8161 569.669 -20.1569 570.291 -25.5177C564.93 -24.8953 559.59 -24.2126 554.249 -23.4697C550.996 -27.7664 547.704 -32.0431 544.351 -36.2594C540.997 -32.023 537.705 -27.7664 534.452 -23.4697C529.111 -24.2126 523.771 -24.8953 518.41 -25.5177C519.032 -20.1569 519.715 -14.8161 520.458 -9.47536C516.161 -6.24281 511.884 -2.92993 507.668 0.423103ZM494.196 21.2038C485.683 14.4777 477.35 7.5508 469.158 0.423103C477.35 -6.7046 485.683 -13.6315 494.196 -20.3577C492.931 -31.1395 491.927 -41.9415 491.184 -52.7636C502.006 -52.0207 512.808 -51.0168 523.59 -49.7519C530.316 -58.2649 537.243 -66.5973 544.371 -74.7892C551.498 -66.5973 558.425 -58.2649 565.151 -49.7519C575.933 -51.0168 586.735 -52.0207 597.557 -52.7636C596.814 -41.9415 595.81 -31.1395 594.546 -20.3577C603.059 -13.6315 611.391 -6.7046 619.583 0.423103C611.391 7.5508 603.059 14.4777 594.546 21.2038C595.81 31.9857 596.814 42.7877 597.557 53.6098C586.735 52.8669 575.933 51.863 565.151 50.5981C558.425 59.1111 551.498 67.4435 544.371 75.6353C537.243 67.4435 530.316 59.1111 523.59 50.5981C512.808 51.863 502.006 52.8669 491.184 53.6098C491.927 42.7676 492.931 31.9657 494.196 21.2038Z" fill="url(#paint3_linear_1_365)" fill-opacity="0.3"/>
<path d="M482.651 0.423077C482.671 2.16986 483.253 3.91665 484.398 5.32211C484.498 5.46265 484.619 5.62328 484.759 5.76383C484.9 5.90437 485.04 6.02483 485.201 6.12523C488.152 8.49443 492.549 8.55467 495.34 5.76383C496.746 4.35837 497.489 2.39072 497.549 0.423077C497.489 -1.56465 496.726 -3.5323 495.34 -4.91768C492.549 -7.70853 488.152 -7.64828 485.201 -5.27908C485.06 -5.17869 484.9 -5.05823 484.759 -4.91768C484.619 -4.77714 484.498 -4.63659 484.398 -4.47596C483.273 -3.0705 482.671 -1.32371 482.651 0.423077ZM500.721 -43.2265C499.496 -41.9817 498.693 -40.3353 498.492 -38.5283C498.452 -38.3476 498.432 -38.1669 498.452 -37.9661C498.452 -37.7653 498.472 -37.5846 498.492 -37.4039C498.894 -33.6292 501.986 -30.4971 505.921 -30.477C507.889 -30.477 509.816 -31.3404 511.262 -32.6856C512.627 -34.1312 513.471 -36.0587 513.471 -38.0263C513.471 -41.9616 510.318 -45.0536 506.544 -45.4552C506.363 -45.4954 506.182 -45.5154 505.982 -45.4954C505.781 -45.4954 505.6 -45.4753 505.419 -45.4552C503.632 -45.2544 501.966 -44.4312 500.721 -43.2265ZM544.371 -61.2968C542.624 -61.2767 540.877 -60.6944 539.472 -59.55C539.331 -59.4496 539.171 -59.3291 539.03 -59.1886C538.889 -59.048 538.769 -58.9075 538.669 -58.7468C536.299 -55.7954 536.239 -51.3983 539.03 -48.6074C540.435 -47.202 542.403 -46.4591 544.371 -46.3989C546.358 -46.4591 548.326 -47.2221 549.711 -48.6074C552.502 -51.3983 552.442 -55.7954 550.073 -58.7468C549.972 -58.8874 549.852 -59.048 549.711 -59.1886C549.571 -59.3291 549.43 -59.4496 549.27 -59.55C547.844 -60.6743 546.097 -61.2767 544.371 -61.2968ZM588 -43.2265C586.755 -44.4513 585.109 -45.2544 583.302 -45.4552C583.121 -45.4954 582.941 -45.5154 582.74 -45.4954C582.539 -45.4954 582.358 -45.4753 582.178 -45.4552C578.403 -45.0536 575.271 -41.9616 575.251 -38.0263C575.251 -36.0587 576.114 -34.1312 577.459 -32.6856C578.905 -31.3203 580.832 -30.477 582.8 -30.477C586.735 -30.477 589.827 -33.6292 590.229 -37.4039C590.269 -37.5846 590.289 -37.7653 590.269 -37.9661C590.269 -38.1669 590.249 -38.3476 590.229 -38.5283C590.028 -40.3152 589.225 -41.9817 588 -43.2265ZM606.07 0.423077C606.05 -1.32371 605.468 -3.0705 604.324 -4.47596C604.223 -4.61651 604.103 -4.77714 603.962 -4.91768C603.822 -5.05823 603.681 -5.17869 603.521 -5.27908C600.569 -7.64828 596.172 -7.70853 593.381 -4.91768C591.976 -3.51222 591.233 -1.54457 591.173 0.423077C591.233 2.4108 591.996 4.37845 593.381 5.76383C596.172 8.55467 600.569 8.49443 603.521 6.12523C603.661 6.02483 603.822 5.90437 603.962 5.76383C604.103 5.62328 604.223 5.48273 604.324 5.32211C605.468 3.89657 606.07 2.14979 606.07 0.423077ZM588 44.0526C589.225 42.8078 590.028 41.1614 590.229 39.3544C590.269 39.1737 590.289 38.9929 590.269 38.7922C590.269 38.5914 590.249 38.4107 590.229 38.23C589.827 34.4553 586.735 31.3231 582.8 31.3031C580.832 31.3031 578.905 32.1664 577.459 33.5117C576.094 34.9573 575.251 36.8848 575.251 38.8524C575.251 42.7877 578.403 45.8797 582.178 46.2813C582.358 46.3214 582.539 46.3415 582.74 46.3214C582.941 46.3214 583.121 46.3013 583.302 46.2813C585.109 46.0805 586.755 45.2774 588 44.0526ZM544.371 62.1228C546.118 62.1027 547.864 61.5205 549.27 60.376C549.41 60.2757 549.571 60.1552 549.711 60.0146C549.852 59.8741 549.972 59.7335 550.073 59.5729C552.442 56.6214 552.502 52.2244 549.711 49.4335C548.306 48.028 546.338 47.2852 544.371 47.2249C542.383 47.2852 540.415 48.0481 539.03 49.4335C536.239 52.2244 536.299 56.6214 538.669 59.5729C538.769 59.7135 538.889 59.8741 539.03 60.0146C539.171 60.1552 539.311 60.2757 539.472 60.376C540.877 61.5205 542.624 62.1228 544.371 62.1228ZM500.721 44.0526C501.966 45.2774 503.612 46.0805 505.419 46.2813C505.6 46.3214 505.781 46.3415 505.982 46.3214C506.182 46.3214 506.363 46.3013 506.544 46.2813C510.318 45.8797 513.451 42.7877 513.471 38.8524C513.471 36.8848 512.607 34.9573 511.262 33.5117C509.816 32.1463 507.889 31.3031 505.921 31.3031C501.986 31.3031 498.894 34.4553 498.492 38.23C498.452 38.4107 498.432 38.5914 498.452 38.7922C498.452 38.9929 498.472 39.1737 498.492 39.3544C498.693 41.1614 499.516 42.8078 500.721 44.0526ZM493.132 0.423077C492.83 2.5915 490.14 4.57922 487.972 2.57142C487.329 1.86869 487.088 1.12581 487.128 0.423077C487.088 -0.279655 487.329 -1.02255 487.972 -1.72528C490.14 -3.73308 492.851 -1.74535 493.132 0.423077ZM508.15 -35.7977C506.403 -34.4725 503.09 -34.9745 502.99 -37.946C503.03 -38.8897 503.391 -39.5924 503.914 -40.0542C504.375 -40.5762 505.078 -40.9376 506.022 -40.9778C508.953 -40.8573 509.475 -37.5445 508.15 -35.7977ZM544.371 -50.816C542.202 -51.1172 540.215 -53.8077 542.222 -55.9761C542.925 -56.6186 543.668 -56.8595 544.371 -56.8194C545.073 -56.8595 545.816 -56.6186 546.519 -55.9761C548.527 -53.8077 546.539 -51.0971 544.371 -50.816ZM580.591 -35.7977C579.266 -37.5445 579.768 -40.8573 582.74 -40.9577C583.683 -40.9176 584.386 -40.5762 584.848 -40.0341C585.37 -39.5723 585.731 -38.8696 585.772 -37.9259C585.651 -34.9946 582.318 -34.4725 580.591 -35.7977ZM595.59 0.423077C595.891 -1.74535 598.581 -3.73308 600.75 -1.72528C601.392 -1.02255 601.633 -0.279655 601.593 0.423077C601.633 1.12581 601.392 1.86869 600.75 2.57142C598.601 4.57922 595.891 2.5915 595.59 0.423077ZM580.591 36.6438C582.338 35.3187 585.651 35.8206 585.752 38.7922C585.711 39.7358 585.37 40.4386 584.828 40.9004C584.366 41.4224 583.663 41.7838 582.72 41.8239C579.768 41.7035 579.266 38.3705 580.591 36.6438ZM544.371 51.6421C546.539 51.9433 548.527 54.6337 546.519 56.8022C545.816 57.4446 545.073 57.6856 544.371 57.6454C543.668 57.6856 542.925 57.4446 542.222 56.8022C540.215 54.6538 542.202 51.9433 544.371 51.6421ZM508.15 36.6438C509.475 38.3906 508.973 41.7035 506.002 41.8039C505.058 41.7838 504.355 41.4224 503.893 40.9004C503.371 40.4386 503.01 39.7358 502.97 38.7922C503.09 35.8206 506.403 35.3187 508.15 36.6438Z" fill="url(#paint4_linear_1_365)" fill-opacity="0.3"/>
</g>
<g clip-path="url(#clip4_1_365)">
<path d="M615.964 321.73C630.125 334.518 644.591 346.878 659.392 358.81C657.378 377.732 655.883 396.714 654.906 415.758C673.95 414.781 692.932 413.286 711.854 411.272C723.787 426.073 736.177 440.57 748.934 454.7C761.721 440.539 774.081 426.073 786.014 411.272C804.935 413.286 823.918 414.781 842.962 415.758C841.985 396.714 840.49 377.732 838.475 358.81C853.277 346.878 867.773 334.487 881.903 321.73C867.743 308.943 853.277 296.583 838.475 284.65C840.49 265.729 841.985 246.746 842.962 227.702C823.918 228.679 804.935 230.174 786.014 232.189C774.112 217.357 761.721 202.891 748.964 188.73C736.177 202.891 723.817 217.357 711.884 232.158C692.963 230.144 673.98 228.649 654.937 227.672C655.913 246.716 657.409 265.698 659.423 284.62C644.591 296.583 630.125 308.943 615.964 321.73ZM724.397 331.893C724.336 331.832 724.244 331.801 724.183 331.74C724.336 331.771 724.488 331.771 724.641 331.801C724.549 331.923 724.458 332.046 724.366 332.168C724.366 332.076 724.366 331.984 724.397 331.893ZM724.397 311.537C724.397 311.445 724.366 311.354 724.366 311.262C724.458 311.384 724.549 311.507 724.641 311.629C724.488 311.659 724.336 311.659 724.183 311.69C724.244 311.659 724.305 311.598 724.397 311.537ZM738.771 297.163C738.832 297.102 738.863 297.01 738.924 296.949C738.893 297.102 738.893 297.254 738.863 297.407C738.741 297.315 738.619 297.224 738.496 297.132C738.619 297.132 738.68 297.132 738.771 297.163ZM759.127 297.163C759.219 297.163 759.31 297.132 759.402 297.132C759.28 297.224 759.158 297.315 759.035 297.407C759.005 297.254 759.005 297.102 758.974 296.949C759.035 297.01 759.097 297.071 759.127 297.163ZM773.532 311.537C773.593 311.598 773.684 311.629 773.745 311.69C773.593 311.659 773.44 311.659 773.288 311.629C773.379 311.507 773.471 311.384 773.562 311.262C773.562 311.384 773.532 311.445 773.532 311.537ZM773.532 331.893C773.532 331.984 773.562 332.076 773.562 332.168C773.471 332.046 773.379 331.923 773.288 331.801C773.44 331.771 773.593 331.771 773.745 331.74C773.684 331.801 773.593 331.862 773.532 331.893ZM759.127 346.298C759.066 346.359 759.035 346.45 758.974 346.511C759.005 346.359 759.005 346.206 759.035 346.054C759.158 346.145 759.28 346.237 759.402 346.328C759.31 346.328 759.219 346.298 759.127 346.298ZM738.771 346.298C738.68 346.298 738.588 346.328 738.496 346.328C738.619 346.237 738.741 346.145 738.863 346.054C738.893 346.206 738.893 346.359 738.924 346.511C738.893 346.45 738.832 346.359 738.771 346.298ZM737.459 326.491C729.402 325.515 721.345 324.538 713.319 323.531C712.556 322.92 711.762 322.341 710.999 321.73C711.762 321.12 712.556 320.54 713.319 319.93C721.376 318.923 729.432 317.915 737.459 316.969C732.454 310.591 727.449 304.182 722.474 297.773C722.352 296.797 722.23 295.82 722.108 294.874C723.085 294.996 724.061 295.118 725.007 295.24C731.416 300.215 737.825 305.22 744.203 310.225C745.18 302.168 746.157 294.111 747.164 286.085C747.774 285.322 748.354 284.528 748.964 283.765C749.575 284.528 750.155 285.322 750.765 286.085C751.772 294.141 752.779 302.198 753.725 310.225C760.104 305.22 766.513 300.215 772.921 295.24C773.898 295.118 774.875 294.996 775.821 294.874C775.699 295.85 775.577 296.827 775.454 297.773C770.48 304.182 765.475 310.591 760.47 316.969C768.527 317.946 776.584 318.923 784.61 319.93C785.373 320.54 786.167 321.12 786.929 321.73C786.167 322.341 785.373 322.92 784.61 323.531C776.553 324.538 768.496 325.545 760.47 326.491C765.475 332.87 770.48 339.278 775.454 345.687C775.577 346.664 775.699 347.641 775.821 348.587C774.844 348.465 773.868 348.342 772.921 348.22C766.513 343.246 760.104 338.241 753.725 333.236C752.749 341.293 751.772 349.35 750.765 357.376C750.155 358.139 749.575 358.932 748.964 359.695C748.354 358.932 747.774 358.139 747.164 357.376C746.157 349.319 745.15 341.262 744.203 333.236C737.825 338.241 731.416 343.246 725.007 348.22C724.031 348.342 723.054 348.465 722.108 348.587C722.23 347.61 722.352 346.633 722.474 345.687C727.449 339.278 732.454 332.87 737.459 326.491ZM693.176 321.73C699.616 326.827 706.086 331.832 712.617 336.776C711.488 344.894 710.45 353.012 709.504 361.16C717.652 360.214 725.77 359.177 733.888 358.047C738.832 364.578 743.837 371.079 748.934 377.488C754.03 371.079 759.035 364.578 763.979 358.047C772.097 359.177 780.215 360.214 788.364 361.16C787.418 353.012 786.38 344.894 785.251 336.776C791.782 331.832 798.282 326.827 804.691 321.73C798.282 316.634 791.782 311.629 785.251 306.685C786.38 298.567 787.418 290.449 788.364 282.3C780.215 283.246 772.097 284.284 763.979 285.413C759.035 278.882 754.03 272.382 748.934 265.973C743.837 272.412 738.832 278.882 733.888 285.413C725.77 284.284 717.652 283.246 709.504 282.3C710.45 290.449 711.488 298.567 712.617 306.685C706.086 311.598 699.585 316.634 693.176 321.73ZM672.698 353.317C659.759 343.093 647.093 332.564 634.642 321.73C647.093 310.896 659.759 300.367 672.698 290.143C670.776 273.755 669.25 257.336 668.121 240.886C684.57 242.016 700.989 243.542 717.378 245.464C727.601 232.524 738.13 219.859 748.964 207.408C759.798 219.859 770.327 232.524 780.551 245.464C796.94 243.542 813.359 242.016 829.808 240.886C828.679 257.336 827.153 273.755 825.23 290.143C838.17 300.367 850.835 310.896 863.287 321.73C850.835 332.564 838.17 343.093 825.23 353.317C827.153 369.705 828.679 386.124 829.808 402.574C813.359 401.445 796.94 399.919 780.551 397.996C770.327 410.936 759.798 423.601 748.964 436.053C738.13 423.601 727.601 410.936 717.378 397.996C700.989 399.919 684.57 401.445 668.121 402.574C669.25 386.094 670.776 369.675 672.698 353.317Z" fill="url(#paint5_linear_1_365)" fill-opacity="0.3"/>
<path d="M655.15 321.73C655.181 324.385 656.066 327.04 657.805 329.177C657.958 329.39 658.141 329.634 658.355 329.848C658.568 330.062 658.782 330.245 659.026 330.397C663.512 333.999 670.196 334.09 674.438 329.848C676.574 327.712 677.704 324.721 677.795 321.73C677.704 318.709 676.544 315.718 674.438 313.612C670.196 309.37 663.512 309.462 659.026 313.063C658.813 313.215 658.568 313.399 658.355 313.612C658.141 313.826 657.958 314.039 657.805 314.284C656.096 316.42 655.181 319.075 655.15 321.73ZM682.617 255.383C680.755 257.275 679.535 259.777 679.23 262.524C679.169 262.799 679.138 263.073 679.169 263.379C679.169 263.684 679.199 263.958 679.23 264.233C679.84 269.971 684.54 274.732 690.521 274.762C693.512 274.762 696.442 273.45 698.639 271.405C700.715 269.208 701.996 266.278 701.996 263.287C701.996 257.305 697.205 252.606 691.467 251.995C691.193 251.934 690.918 251.904 690.613 251.934C690.308 251.934 690.033 251.965 689.758 251.995C687.042 252.3 684.509 253.552 682.617 255.383ZM748.965 227.916C746.309 227.947 743.654 228.832 741.518 230.571C741.304 230.724 741.06 230.907 740.847 231.12C740.633 231.334 740.45 231.548 740.297 231.792C736.696 236.278 736.604 242.962 740.847 247.204C742.983 249.34 745.974 250.469 748.965 250.561C751.986 250.469 754.977 249.31 757.082 247.204C761.325 242.962 761.233 236.278 757.632 231.792C757.479 231.578 757.296 231.334 757.082 231.12C756.869 230.907 756.655 230.724 756.411 230.571C754.244 228.862 751.589 227.947 748.965 227.916ZM815.281 255.383C813.389 253.521 810.887 252.3 808.14 251.995C807.865 251.934 807.591 251.904 807.286 251.934C806.98 251.934 806.706 251.965 806.431 251.995C800.694 252.606 795.933 257.305 795.902 263.287C795.902 266.278 797.214 269.208 799.259 271.405C801.456 273.48 804.386 274.762 807.377 274.762C813.359 274.762 818.059 269.971 818.669 264.233C818.73 263.958 818.761 263.684 818.73 263.379C818.73 263.073 818.699 262.799 818.669 262.524C818.364 259.808 817.143 257.275 815.281 255.383ZM842.748 321.73C842.718 319.075 841.833 316.42 840.093 314.284C839.94 314.07 839.757 313.826 839.544 313.612C839.33 313.399 839.116 313.215 838.872 313.063C834.386 309.462 827.702 309.37 823.46 313.612C821.324 315.749 820.195 318.739 820.103 321.73C820.195 324.752 821.355 327.742 823.46 329.848C827.702 334.09 834.386 333.999 838.872 330.397C839.086 330.245 839.33 330.062 839.544 329.848C839.757 329.634 839.94 329.421 840.093 329.177C841.833 327.01 842.748 324.355 842.748 321.73ZM815.281 388.047C817.143 386.155 818.364 383.652 818.669 380.906C818.73 380.631 818.761 380.356 818.73 380.051C818.73 379.746 818.699 379.471 818.669 379.197C818.059 373.459 813.359 368.698 807.377 368.668C804.386 368.668 801.456 369.98 799.259 372.025C797.184 374.222 795.902 377.152 795.902 380.143C795.902 386.124 800.694 390.824 806.431 391.435C806.706 391.496 806.98 391.526 807.286 391.496C807.591 391.496 807.865 391.465 808.14 391.435C810.887 391.129 813.389 389.909 815.281 388.047ZM748.965 415.514C751.62 415.483 754.275 414.598 756.411 412.859C756.625 412.706 756.869 412.523 757.082 412.309C757.296 412.096 757.479 411.882 757.632 411.638C761.233 407.152 761.325 400.468 757.082 396.226C754.946 394.09 751.955 392.961 748.965 392.869C745.943 392.961 742.952 394.12 740.847 396.226C736.604 400.468 736.696 407.152 740.297 411.638C740.45 411.852 740.633 412.096 740.847 412.309C741.06 412.523 741.274 412.706 741.518 412.859C743.654 414.598 746.309 415.514 748.965 415.514ZM682.617 388.047C684.509 389.909 687.012 391.129 689.758 391.435C690.033 391.496 690.308 391.526 690.613 391.496C690.918 391.496 691.193 391.465 691.467 391.435C697.205 390.824 701.966 386.124 701.996 380.143C701.996 377.152 700.684 374.222 698.639 372.025C696.442 369.95 693.512 368.668 690.521 368.668C684.54 368.668 679.84 373.459 679.23 379.197C679.169 379.471 679.138 379.746 679.169 380.051C679.169 380.356 679.199 380.631 679.23 380.906C679.535 383.652 680.786 386.155 682.617 388.047ZM671.081 321.73C670.623 325.026 666.534 328.048 663.238 324.996C662.261 323.928 661.895 322.798 661.956 321.73C661.895 320.662 662.261 319.533 663.238 318.465C666.534 315.413 670.654 318.434 671.081 321.73ZM693.909 266.675C691.254 268.689 686.218 267.926 686.066 263.409C686.127 261.975 686.676 260.907 687.47 260.205C688.171 259.411 689.24 258.862 690.674 258.801C695.13 258.984 695.923 264.02 693.909 266.675ZM748.965 243.847C745.669 243.389 742.647 239.299 745.699 236.003C746.767 235.027 747.896 234.661 748.965 234.722C750.033 234.661 751.162 235.027 752.23 236.003C755.282 239.299 752.261 243.419 748.965 243.847ZM804.02 266.675C802.006 264.02 802.769 258.984 807.286 258.831C808.72 258.892 809.788 259.411 810.49 260.235C811.283 260.937 811.833 262.005 811.894 263.44C811.711 267.895 806.645 268.689 804.02 266.675ZM826.817 321.73C827.275 318.434 831.365 315.413 834.661 318.465C835.637 319.533 836.004 320.662 835.942 321.73C836.004 322.798 835.637 323.928 834.661 324.996C831.395 328.048 827.275 325.026 826.817 321.73ZM804.02 376.786C806.675 374.771 811.711 375.534 811.863 380.051C811.802 381.486 811.283 382.554 810.459 383.256C809.758 384.049 808.689 384.598 807.255 384.659C802.769 384.476 802.006 379.41 804.02 376.786ZM748.965 399.583C752.261 400.041 755.282 404.13 752.23 407.426C751.162 408.403 750.033 408.769 748.965 408.708C747.896 408.769 746.767 408.403 745.699 407.426C742.647 404.161 745.669 400.041 748.965 399.583ZM693.909 376.786C695.923 379.441 695.16 384.476 690.643 384.629C689.209 384.598 688.141 384.049 687.439 383.256C686.646 382.554 686.096 381.486 686.035 380.051C686.218 375.534 691.254 374.771 693.909 376.786Z" fill="url(#paint6_linear_1_365)" fill-opacity="0.3"/>
</g>
<rect x="87.3267" y="256.73" width="57.3906" height="3" rx="1.5" fill="white"/>
<rect x="155.022" y="256.73" width="57.3906" height="3" rx="1.5" fill="white" fill-opacity="0.6"/>
<rect x="222.718" y="256.73" width="57.3906" height="3" rx="1.5" fill="white" fill-opacity="0.6"/>
<rect x="290.413" y="256.73" width="57.3906" height="3" rx="1.5" fill="white" fill-opacity="0.6"/>
<path d="M89.1567 52.0302V60.7532H89.4617C89.4617 53.9212 90.0107 52.8842 95.6227 52.8842H99.4657V91.9852C99.4657 94.1812 98.3677 94.4252 96.4767 94.4252V94.7302H105.017V94.4252C103.065 94.4252 102.028 94.1812 102.028 91.9852V52.8842H105.871C111.422 52.8842 111.971 53.9212 111.971 60.7532H112.276V52.0302H89.1567ZM115.048 73.3802C115.048 85.6412 122.917 95.5842 135.178 95.5842C146.951 95.5842 152.685 88.8742 152.685 80.5172H151.77C151.77 87.7762 146.707 94.7302 135.178 94.7302C125.357 94.7302 118.037 86.9832 118.037 73.3802C118.037 72.4042 118.098 71.4282 118.159 70.5132H152.685V69.6592C152.685 62.5832 147.622 51.1762 134.385 51.1762C122.124 51.1762 115.048 61.1192 115.048 73.3802ZM134.385 52.0302C142.315 52.0302 149.086 56.4222 150.001 66.5482C150.123 68.2562 148.842 69.6592 147.134 69.6592H118.22C119.318 58.3742 125.479 52.0302 134.385 52.0302ZM155.458 52.3352C157.349 52.3352 158.447 52.5792 158.447 54.7752V91.9852C158.447 94.1812 157.349 94.4252 155.458 94.4252V94.7302H162.29V94.4252C160.399 94.4252 159.301 94.1812 159.301 91.9852V53.1892C160.277 55.4462 163.205 61.9732 171.562 81.0052L168.024 88.1422C166.499 91.0092 167.841 95.5842 172.294 95.5842C177.174 95.5842 178.699 90.8262 177.357 87.7762L173.819 79.7242L187.361 53.0062V91.9852C187.361 94.1812 186.324 94.4252 184.372 94.4252V94.7302H192.912V94.4252C191.021 94.4252 189.923 94.1812 189.923 91.9852V54.7752C189.923 52.5792 191.021 52.3352 192.912 52.3352V52.0302H186.873L173.392 78.6872L161.619 52.0302H155.458V52.3352ZM168.939 88.1422L172.05 82.0422C172.965 84.1772 173.941 86.4342 175.039 88.8132C177.113 93.5102 173.087 94.7302 172.294 94.7302C168.329 94.7302 167.963 90.1552 168.939 88.1422ZM195.647 52.3352C197.538 52.3352 198.636 52.5792 198.636 54.7752V85.5192C198.636 91.0702 202.235 95.5842 207.847 95.5842C212.849 95.5842 216.143 92.2902 218.156 88.2642C218.766 93.2662 220.84 95.5842 223.951 95.5842C227.794 95.5842 229.014 92.5952 229.014 90.7042H228.221C228.221 93.5102 226.269 94.7302 224.195 94.7302C222.67 94.7302 220.535 94.0592 220.535 86.0072V52.0302H214.984V52.3352C216.875 52.3352 217.973 52.5792 217.973 54.7752V78.5652C217.973 88.7522 213.154 94.7302 207.847 94.7302C203.211 94.7302 201.198 90.9482 201.198 86.3732V52.0302H195.647V52.3352ZM229.385 52.3352C231.276 52.3352 232.374 52.5792 232.374 54.7752V91.9852C232.374 94.1812 231.276 94.4252 229.385 94.4252V94.7302H237.925V94.4252C236.034 94.4252 234.936 94.1812 234.936 91.9852V54.7752C234.936 53.4942 237.01 52.8842 242.073 52.8842C245.672 52.8842 252.26 54.7752 252.26 62.0952C252.26 68.5612 248.051 73.1362 242.195 73.1362C240.243 73.1362 238.108 72.6482 235.851 71.4892L235.485 72.1602L252.687 92.1682C254.09 93.8152 256.164 94.7302 258.299 94.7302H260.251V94.4252C258.36 94.4252 257.567 93.8762 255.615 91.6802L240.548 74.0512C241.463 74.2342 242.439 74.3562 243.354 74.3562C249.576 74.3562 255.249 70.2692 255.249 61.9732C255.249 55.2632 250.125 52.0302 241.829 52.0302H229.385V52.3352ZM262.983 94.7302H271.523V94.4252C269.632 94.4252 268.534 94.1812 268.534 91.9852V61.6682C268.534 60.2042 267.375 59.1062 265.972 59.1062H262.983V59.4112C264.874 59.4112 265.972 59.5942 265.972 61.8512V91.9852C265.972 94.1812 264.874 94.4252 262.983 94.4252V94.7302ZM264.874 54.1652C265.179 55.4462 266.521 56.2392 267.802 55.9342C269.083 55.6292 269.876 54.3482 269.571 53.0062C269.266 51.7252 267.985 50.9322 266.704 51.2372C265.362 51.5422 264.569 52.8232 264.874 54.1652ZM278.245 54.7752L290.14 74.4172L278.916 92.5342C277.879 94.0592 277.025 94.4252 275.317 94.4252V94.7302H282.271V94.4252C280.38 94.4252 279.038 93.9372 280.258 91.9852L303.255 54.7752C304.475 52.8232 305.268 52.3352 307.22 52.3352V52.0302H300.266V52.3352C301.974 52.3352 303.194 52.7622 302.523 54.2872L291.665 71.9162L281.234 54.7752C280.136 52.9452 281.478 52.3352 283.369 52.3352V52.0302H274.28V52.3352C276.171 52.3352 277.025 52.8232 278.245 54.7752ZM309.031 52.3352C310.922 52.3352 312.02 52.5792 312.02 54.7752V91.9852C312.02 94.1812 310.922 94.4252 309.031 94.4252V94.7302H332.15V76.3082H331.845C331.845 93.3272 328.673 93.8762 323.061 93.8762H314.582V54.7752C314.582 52.5792 315.68 52.3352 317.571 52.3352V52.0302H309.031V52.3352ZM348.314 95.5842C356.305 95.5842 360.514 90.3992 362.771 84.7872V84.8482C362.771 92.2292 364.967 95.5842 368.81 95.5842C372.592 95.5842 373.812 92.5952 373.812 90.7042H373.019C373.019 93.5102 371.067 94.7302 369.054 94.7302C367.468 94.7302 365.333 94.0592 365.333 86.0072V63.3762C365.333 58.1302 362.344 51.1762 351.974 51.1762C346.728 51.1762 340.567 53.4332 338.249 58.8622L340.933 59.7162C342.824 54.3482 347.887 52.0302 352.157 52.0302C361.795 52.0302 362.771 59.1062 362.771 64.4132V67.6462C354.414 67.6462 336.114 69.0492 336.114 83.9942C336.114 91.1312 341.299 95.5842 348.314 95.5842ZM362.771 68.1952V72.8312C362.771 77.4672 361.978 94.7302 348.314 94.7302C342.824 94.7302 338.676 91.3752 338.676 83.9942C338.676 70.6352 354.292 68.1952 362.771 68.1952ZM375.928 52.3352C377.819 52.3352 378.917 52.5792 378.917 54.7752V91.9852C378.917 94.1812 377.819 94.4252 375.928 94.4252V94.7302H384.468V94.4252C382.577 94.4252 381.479 94.1812 381.479 91.9852V54.7752C381.479 53.4942 383.553 52.8842 388.616 52.8842C392.215 52.8842 398.803 54.7752 398.803 62.0952C398.803 68.5612 394.594 73.1362 388.738 73.1362C386.786 73.1362 384.651 72.6482 382.394 71.4892L382.028 72.1602L399.23 92.1682C400.633 93.8152 402.707 94.7302 404.842 94.7302H406.794V94.4252C404.903 94.4252 404.11 93.8762 402.158 91.6802L387.091 74.0512C388.006 74.2342 388.982 74.3562 389.897 74.3562C396.119 74.3562 401.792 70.2692 401.792 61.9732C401.792 55.2632 396.668 52.0302 388.372 52.0302H375.928V52.3352ZM88.5467 119.03V119.335C90.4377 119.335 91.5357 119.579 91.5357 121.775V158.985C91.5357 161.181 90.4377 161.425 88.5467 161.425V161.73H100.991C116.729 161.73 123.317 151.299 123.317 138.428C123.317 124.764 116.18 118.176 106.969 118.176C100.93 118.176 96.0497 121.958 94.0977 126.289V121.592C94.0977 120.189 92.9387 119.03 91.5357 119.03H88.5467ZM94.0977 130.62C94.0977 125.496 99.4047 119.03 106.725 119.03C115.448 119.03 120.328 125.313 120.328 138.428C120.328 157.399 109.958 160.876 101.235 160.876C96.1717 160.876 94.0977 160.266 94.0977 158.985V130.62ZM138.448 162.584C146.439 162.584 150.648 157.399 152.905 151.787V151.848C152.905 159.229 155.101 162.584 158.944 162.584C162.726 162.584 163.946 159.595 163.946 157.704H163.153C163.153 160.51 161.201 161.73 159.188 161.73C157.602 161.73 155.467 161.059 155.467 153.007V130.376C155.467 125.13 152.478 118.176 142.108 118.176C136.862 118.176 130.701 120.433 128.383 125.862L131.067 126.716C132.958 121.348 138.021 119.03 142.291 119.03C151.929 119.03 152.905 126.106 152.905 131.413V134.646C144.548 134.646 126.248 136.049 126.248 150.994C126.248 158.131 131.433 162.584 138.448 162.584ZM152.905 135.195V139.831C152.905 144.467 152.112 161.73 138.448 161.73C132.958 161.73 128.81 158.375 128.81 150.994C128.81 137.635 144.426 135.195 152.905 135.195ZM159.13 119.03V119.396C161.021 119.396 162.241 119.762 163.095 121.897L178.65 162.584L193.168 121.226C193.9 119.64 194.998 119.396 196.767 119.396V119.03H189.508V119.396C191.399 119.396 192.802 119.701 192.07 121.836L179.504 157.582L165.779 121.836C164.925 119.64 166.328 119.396 168.219 119.396V119.03H159.13ZM199.54 119.335C201.431 119.335 202.529 119.579 202.529 121.775V158.985C202.529 161.181 201.431 161.425 199.54 161.425V161.73H208.08V161.425C206.189 161.425 205.091 161.181 205.091 158.985V121.775C205.091 120.494 207.165 119.884 212.228 119.884C215.827 119.884 222.415 121.775 222.415 129.095C222.415 135.561 218.206 140.136 212.35 140.136C210.398 140.136 208.263 139.648 206.006 138.489L205.64 139.16L222.842 159.168C224.245 160.815 226.319 161.73 228.454 161.73H230.406V161.425C228.515 161.425 227.722 160.876 225.77 158.68L210.703 141.051C211.618 141.234 212.594 141.356 213.509 141.356C219.731 141.356 225.404 137.269 225.404 128.973C225.404 122.263 220.28 119.03 211.984 119.03H199.54V119.335ZM233.138 161.73H241.678V161.425C239.787 161.425 238.689 161.181 238.689 158.985V128.668C238.689 127.204 237.53 126.106 236.127 126.106H233.138V126.411C235.029 126.411 236.127 126.594 236.127 128.851V158.985C236.127 161.181 235.029 161.425 233.138 161.425V161.73ZM235.029 121.165C235.334 122.446 236.676 123.239 237.957 122.934C239.238 122.629 240.031 121.348 239.726 120.006C239.421 118.725 238.14 117.932 236.859 118.237C235.517 118.542 234.724 119.823 235.029 121.165ZM100.442 229.584C108.433 229.584 112.642 224.399 114.899 218.787V218.848C114.899 226.229 117.095 229.584 120.938 229.584C124.72 229.584 125.94 226.595 125.94 224.704H125.147C125.147 227.51 123.195 228.73 121.182 228.73C119.596 228.73 117.461 228.059 117.461 220.007V197.376C117.461 192.13 114.472 185.176 104.102 185.176C98.8557 185.176 92.6947 187.433 90.3767 192.862L93.0607 193.716C94.9517 188.348 100.015 186.03 104.285 186.03C113.923 186.03 114.899 193.106 114.899 198.413V201.646C106.542 201.646 88.2417 203.049 88.2417 217.994C88.2417 225.131 93.4267 229.584 100.442 229.584ZM114.899 202.195V206.831C114.899 211.467 114.106 228.73 100.442 228.73C94.9517 228.73 90.8037 225.375 90.8037 217.994C90.8037 204.635 106.42 202.195 114.899 202.195ZM127.446 186.03V186.335C129.337 186.335 130.435 186.579 130.435 188.775V225.985C130.435 228.181 129.337 228.425 127.446 228.425V228.73H139.89C155.628 228.73 162.216 218.299 162.216 205.428C162.216 191.764 155.079 185.176 145.868 185.176C139.829 185.176 134.949 188.958 132.997 193.289V188.592C132.997 187.189 131.838 186.03 130.435 186.03H127.446ZM132.997 197.62C132.997 192.496 138.304 186.03 145.624 186.03C154.347 186.03 159.227 192.313 159.227 205.428C159.227 224.399 148.857 227.876 140.134 227.876C135.071 227.876 132.997 227.266 132.997 225.985V197.62ZM177.347 229.584C185.338 229.584 189.547 224.399 191.804 218.787V218.848C191.804 226.229 194 229.584 197.843 229.584C201.625 229.584 202.845 226.595 202.845 224.704H202.052C202.052 227.51 200.1 228.73 198.087 228.73C196.501 228.73 194.366 228.059 194.366 220.007V197.376C194.366 192.13 191.377 185.176 181.007 185.176C175.761 185.176 169.6 187.433 167.282 192.862L169.966 193.716C171.857 188.348 176.92 186.03 181.19 186.03C190.828 186.03 191.804 193.106 191.804 198.413V201.646C183.447 201.646 165.147 203.049 165.147 217.994C165.147 225.131 170.332 229.584 177.347 229.584ZM191.804 202.195V206.831C191.804 211.467 191.011 228.73 177.347 228.73C171.857 228.73 167.709 225.375 167.709 217.994C167.709 204.635 183.325 202.195 191.804 202.195ZM204.961 186.03V186.335C206.852 186.335 207.95 186.579 207.95 188.775V225.985C207.95 228.181 206.852 228.425 204.961 228.425V228.73H207.95C209.353 228.73 210.512 227.571 210.512 226.168V224.338C211.61 226.473 215.27 229.584 221.248 229.584C228.141 229.584 235.339 226.229 235.339 216.347C235.339 207.014 225.945 204.452 219.601 204.818C223.688 203.842 230.825 201.036 230.825 194.387C230.825 190.788 228.385 186.03 220.882 186.03C215.148 186.03 211.915 190.178 210.512 194.204V188.592C210.512 187.189 209.353 186.03 207.95 186.03H204.961ZM210.512 199.755C210.512 194.875 212.891 186.884 221.126 186.884C225.64 186.884 227.836 190.361 227.836 194.509C227.836 199.206 223.932 203.049 215.575 205.062L215.758 206.16C216.856 205.916 218.076 205.794 219.235 205.794C225.762 205.794 232.35 209.271 232.35 216.469C232.35 226.29 226.982 228.73 221.309 228.73C214.721 228.73 210.512 223.972 210.512 220.922V199.755ZM238.082 228.73H246.622V228.425C244.731 228.425 243.633 228.181 243.633 225.985V195.668C243.633 194.204 242.474 193.106 241.071 193.106H238.082V193.411C239.973 193.411 241.071 193.594 241.071 195.851V225.985C241.071 228.181 239.973 228.425 238.082 228.425V228.73ZM239.973 188.165C240.278 189.446 241.62 190.239 242.901 189.934C244.182 189.629 244.975 188.348 244.67 187.006C244.365 185.725 243.084 184.932 241.803 185.237C240.461 185.542 239.668 186.823 239.973 188.165ZM253.344 188.775L265.239 208.417L254.015 226.534C252.978 228.059 252.124 228.425 250.416 228.425V228.73H257.37V228.425C255.479 228.425 254.137 227.937 255.357 225.985L278.354 188.775C279.574 186.823 280.367 186.335 282.319 186.335V186.03H275.365V186.335C277.073 186.335 278.293 186.762 277.622 188.287L266.764 205.916L256.333 188.775C255.235 186.945 256.577 186.335 258.468 186.335V186.03H249.379V186.335C251.27 186.335 252.124 186.823 253.344 188.775ZM281.011 207.38C281.011 219.641 287.599 229.584 299.86 229.584C312.121 229.584 318.587 219.641 318.587 207.38C318.587 195.119 312.121 185.176 299.86 185.176C287.599 185.176 281.011 195.119 281.011 207.38ZM299.86 186.03C309.681 186.03 315.598 193.777 315.598 207.38C315.598 220.983 309.681 228.73 299.86 228.73C290.039 228.73 284 220.983 284 207.38C284 193.777 290.039 186.03 299.86 186.03ZM321.362 186.03V205.55H321.667C321.667 186.884 321.667 186.884 333.379 186.884V225.985C333.379 228.181 332.281 228.425 330.39 228.425V228.73H338.93V228.425C336.978 228.425 335.941 228.181 335.941 225.985V186.884C347.592 186.884 347.592 186.884 347.592 205.55H347.897V186.03H321.362ZM351.564 228.73H360.104V228.425C358.213 228.425 357.115 228.181 357.115 225.985V195.668C357.115 194.204 355.956 193.106 354.553 193.106H351.564V193.411C353.455 193.411 354.553 193.594 354.553 195.851V225.985C354.553 228.181 353.455 228.425 351.564 228.425V228.73ZM353.455 188.165C353.76 189.446 355.102 190.239 356.383 189.934C357.664 189.629 358.457 188.348 358.152 187.006C357.847 185.725 356.566 184.932 355.285 185.237C353.943 185.542 353.15 186.823 353.455 188.165Z" fill="#C9AC8C"/>
</g>
<defs>
<linearGradient id="paint0_linear_1_365" x1="0.92236" y1="197.435" x2="1334.17" y2="126.208" gradientUnits="userSpaceOnUse">
<stop offset="0.671875" stop-color="#263A3D"/>
<stop offset="1" stop-color="#191919" stop-opacity="0"/>
</linearGradient>
<linearGradient id="paint1_linear_1_365" x1="-156.464" y1="69.6768" x2="245.933" y2="303.714" gradientUnits="userSpaceOnUse">
<stop offset="0.0625" stop-color="white"/>
<stop offset="1" stop-color="white" stop-opacity="0"/>
</linearGradient>
<linearGradient id="paint2_linear_1_365" x1="90.4866" y1="163.84" x2="90.4866" y2="384.585" gradientUnits="userSpaceOnUse">
<stop offset="0.0625" stop-color="white"/>
<stop offset="1" stop-color="white" stop-opacity="0"/>
</linearGradient>
<linearGradient id="paint3_linear_1_365" x1="574.604" y1="-67.913" x2="544.351" y2="87.903" gradientUnits="userSpaceOnUse">
<stop offset="0.0625" stop-color="white"/>
<stop offset="1" stop-color="white" stop-opacity="0"/>
</linearGradient>
<linearGradient id="paint4_linear_1_365" x1="544.361" y1="-61.2968" x2="544.361" y2="62.1228" gradientUnits="userSpaceOnUse">
<stop offset="0.0625" stop-color="white"/>
<stop offset="1" stop-color="white" stop-opacity="0"/>
</linearGradient>
<linearGradient id="paint5_linear_1_365" x1="748.934" y1="188.73" x2="748.934" y2="454.7" gradientUnits="userSpaceOnUse">
<stop offset="0.0625" stop-color="white"/>
<stop offset="1" stop-color="white" stop-opacity="0"/>
</linearGradient>
<linearGradient id="paint6_linear_1_365" x1="748.949" y1="227.916" x2="748.949" y2="415.514" gradientUnits="userSpaceOnUse">
<stop offset="0.0625" stop-color="white"/>
<stop offset="1" stop-color="white" stop-opacity="0"/>
</linearGradient>
<clipPath id="clip0_1_365">
<rect width="1261.9" height="346.973" fill="white" transform="translate(0.922363 0.423096)"/>
</clipPath>
<clipPath id="clip1_1_365">
<rect width="1261.9" height="346.973" fill="white" transform="translate(0.922363 0.423096)"/>
</clipPath>
<clipPath id="clip2_1_365">
<rect width="311" height="313" fill="white" transform="translate(-64.9956 117.73)"/>
</clipPath>
<clipPath id="clip3_1_365">
<rect width="175" height="175" fill="white" transform="translate(456.871 -87.0769)"/>
</clipPath>
<clipPath id="clip4_1_365">
<rect width="266" height="266" fill="white" transform="translate(615.964 188.73)"/>
</clipPath>
</defs>
</svg>
